<?xml version="1.0" encoding="utf-8"?>
<!-- Generator: Adobe Illustrator 23.0.1, SVG Export Plug-In . SVG Version: 6.00 Build 0)  -->
<svg version="1.1" id="Layer_1" xmlns="http://www.w3.org/2000/svg" xmlns:xlink="http://www.w3.org/1999/xlink" x="0px" y="0px"
	 viewBox="0 0 100 100" enable-background="new 0 0 100 100" xml:space="preserve">
<path fill="#FFFFFF" d="M50,1C22.938,1,1,22.938,1,50s21.938,49,49,49s49-21.938,49-49S77.062,1,50,1z M61.221,64.798
	c0,0.256-0.057,0.44-0.168,0.552c-0.113,0.112-0.297,0.168-0.553,0.168H37.844c-0.064,0-0.096-0.096-0.096-0.288
	s0.031-0.288,0.096-0.288c1.023,0,1.768-0.079,2.232-0.24c0.463-0.16,0.783-0.472,0.961-0.936c0.174-0.464,0.264-1.176,0.264-2.136
	V39.406c0-0.96-0.09-1.663-0.264-2.112c-0.178-0.448-0.504-0.76-0.984-0.936c-0.48-0.175-1.217-0.264-2.209-0.264
	c-0.064,0-0.096-0.096-0.096-0.288s0.031-0.288,0.096-0.288l2.449,0.048c1.471,0.065,2.688,0.096,3.646,0.096
	c0.961,0,2.176-0.031,3.648-0.096l2.449-0.048c0.096,0,0.143,0.096,0.143,0.288s-0.047,0.288-0.143,0.288
	c-0.992,0-1.729,0.089-2.209,0.264c-0.48,0.176-0.801,0.497-0.959,0.96c-0.162,0.464-0.24,1.176-0.24,2.136v21.984
	c0,0.832,0.063,1.432,0.191,1.8c0.127,0.368,0.375,0.617,0.744,0.744c0.367,0.128,0.967,0.192,1.801,0.192h1.631
	c2.496,0,4.656-0.664,6.48-1.992c1.824-1.327,3.039-3.127,3.648-5.4c0-0.064,0.063-0.096,0.191-0.096
	c0.064,0,0.135,0.024,0.217,0.072c0.078,0.048,0.119,0.089,0.119,0.12C61.366,60.046,61.221,62.686,61.221,64.798z"/>
<g>
</g>
<g>
</g>
<g>
</g>
<g>
</g>
<g>
</g>
<g>
</g>
<g>
</g>
<g>
</g>
<g>
</g>
<g>
</g>
<g>
</g>
<g>
</g>
<g>
</g>
<g>
</g>
<g>
</g>
</svg>
