<?xml version="1.0" encoding="utf-8"?>
<!-- Generator: Adobe Illustrator 22.1.0, SVG Export Plug-In . SVG Version: 6.00 Build 0)  -->
<svg version="1.1" id="Layer_1" xmlns="http://www.w3.org/2000/svg" xmlns:xlink="http://www.w3.org/1999/xlink" x="0px" y="0px"
	 viewBox="0 0 100 100" enable-background="new 0 0 100 100" xml:space="preserve">
<path fill="#FFFFFF" d="M18.707,48.711c2.118,0,4.097,0,6.076,0c11.082-0.001,22.164-0.002,33.245-0.001
	c1.05,0,1.682,0.699,1.457,1.605c-0.151,0.608-0.655,0.976-1.368,0.977c-2.805,0.004-5.61,0.002-8.414,0.002
	c-10.152,0-20.304-0.001-30.456-0.001c-0.136,0-0.271,0-0.531,0c0.186,0.175,0.294,0.285,0.41,0.385
	c3.429,2.955,6.862,5.906,10.281,8.872c0.253,0.219,0.486,0.521,0.597,0.831c0.194,0.544-0.076,1.124-0.557,1.421
	c-0.497,0.308-1.067,0.26-1.563-0.164c-1.471-1.258-2.934-2.526-4.4-3.789c-2.967-2.557-5.935-5.113-8.9-7.673
	c-0.933-0.806-0.926-1.56,0.001-2.359c4.318-3.721,8.632-7.447,12.957-11.161c0.293-0.251,0.631-0.503,0.992-0.61
	c0.577-0.171,1.143,0.157,1.399,0.686c0.258,0.534,0.131,1.15-0.352,1.57c-1.115,0.971-2.237,1.933-3.357,2.898
	c-2.378,2.05-4.757,4.1-7.134,6.15C18.989,48.437,18.896,48.532,18.707,48.711z"/>
<path fill="#FFFFFF" d="M66.004,28.891C58.155,28.192,50.418,32.08,46,38l3.727-0.038c3.922-4.384,9.762-6.926,16.036-6.368
	c10.604,0.943,18.429,10.382,17.477,21.082s-10.32,18.609-20.924,17.665c-5.51-0.49-10.264-3.278-13.432-7.341H46
	c3.544,5.532,9.064,9.42,16.076,10.044c12.084,1.075,22.759-7.938,23.844-20.13C87.005,40.721,78.088,29.966,66.004,28.891z"/>
<g>
</g>
<g>
</g>
<g>
</g>
<g>
</g>
<g>
</g>
<g>
</g>
<g>
</g>
<g>
</g>
<g>
</g>
<g>
</g>
<g>
</g>
<g>
</g>
<g>
</g>
<g>
</g>
<g>
</g>
</svg>
