<svg width="116" height="20" viewBox="0 0 116 20" fill="none" xmlns="http://www.w3.org/2000/svg">
<path d="M23.7969 8.17969C23.7969 10.0651 23.2734 11.5078 22.2266 12.5078C21.1797 13.5026 19.6719 14 17.7031 14H14.5078V2.57812H18.0391C19.8568 2.57812 21.2708 3.06771 22.2812 4.04688C23.2917 5.02604 23.7969 6.40365 23.7969 8.17969ZM21.8281 8.24219C21.8281 5.50781 20.5495 4.14062 17.9922 4.14062H16.375V12.4297H17.7031C20.4531 12.4297 21.8281 11.0339 21.8281 8.24219ZM33.7266 9.66406C33.7266 11.0755 33.3646 12.1771 32.6406 12.9688C31.9167 13.7604 30.9089 14.1562 29.6172 14.1562C28.8099 14.1562 28.0964 13.974 27.4766 13.6094C26.8568 13.2448 26.3802 12.7214 26.0469 12.0391C25.7135 11.3568 25.5469 10.5651 25.5469 9.66406C25.5469 8.26302 25.9062 7.16927 26.625 6.38281C27.3438 5.59635 28.3568 5.20312 29.6641 5.20312C30.9141 5.20312 31.9036 5.60677 32.6328 6.41406C33.362 7.21615 33.7266 8.29948 33.7266 9.66406ZM27.4375 9.66406C27.4375 11.6589 28.1745 12.6562 29.6484 12.6562C31.1068 12.6562 31.8359 11.6589 31.8359 9.66406C31.8359 7.6901 31.1016 6.70312 29.6328 6.70312C28.862 6.70312 28.3021 6.95833 27.9531 7.46875C27.6094 7.97917 27.4375 8.71094 27.4375 9.66406ZM42.9297 14L41.8125 9.96875C41.6771 9.54167 41.4323 8.54948 41.0781 6.99219H41.0078C40.7057 8.39844 40.4661 9.39583 40.2891 9.98438L39.1406 14H37.1094L34.6875 5.35938H36.5625L37.6641 9.61719C37.9141 10.6693 38.0911 11.5703 38.1953 12.3203H38.2422C38.2943 11.9401 38.3724 11.5052 38.4766 11.0156C38.5859 10.5208 38.6797 10.151 38.7578 9.90625L40.0703 5.35938H42.0859L43.3594 9.90625C43.4375 10.1615 43.5339 10.5521 43.6484 11.0781C43.7682 11.6042 43.8385 12.013 43.8594 12.3047H43.9219C44 11.6641 44.1823 10.7682 44.4688 9.61719L45.5859 5.35938H47.4297L44.9922 14H42.9297ZM56.5234 14H54.6797V8.6875C54.6797 8.02083 54.5443 7.52344 54.2734 7.19531C54.0078 6.86719 53.5833 6.70312 53 6.70312C52.224 6.70312 51.6562 6.93229 51.2969 7.39062C50.9375 7.84896 50.7578 8.61719 50.7578 9.69531V14H48.9219V5.35938H50.3594L50.6172 6.49219H50.7109C50.9714 6.08073 51.3411 5.76302 51.8203 5.53906C52.2995 5.3151 52.8307 5.20312 53.4141 5.20312C55.487 5.20312 56.5234 6.25781 56.5234 8.36719V14ZM60.9141 14H59.0781V1.84375H60.9141V14ZM71.2109 9.66406C71.2109 11.0755 70.849 12.1771 70.125 12.9688C69.401 13.7604 68.3932 14.1562 67.1016 14.1562C66.2943 14.1562 65.5807 13.974 64.9609 13.6094C64.3411 13.2448 63.8646 12.7214 63.5312 12.0391C63.1979 11.3568 63.0312 10.5651 63.0312 9.66406C63.0312 8.26302 63.3906 7.16927 64.1094 6.38281C64.8281 5.59635 65.8411 5.20312 67.1484 5.20312C68.3984 5.20312 69.388 5.60677 70.1172 6.41406C70.8464 7.21615 71.2109 8.29948 71.2109 9.66406ZM64.9219 9.66406C64.9219 11.6589 65.6589 12.6562 67.1328 12.6562C68.5911 12.6562 69.3203 11.6589 69.3203 9.66406C69.3203 7.6901 68.5859 6.70312 67.1172 6.70312C66.3464 6.70312 65.7865 6.95833 65.4375 7.46875C65.0938 7.97917 64.9219 8.71094 64.9219 9.66406ZM78.7344 14L78.3672 12.7969H78.3047C77.888 13.3229 77.4688 13.6823 77.0469 13.875C76.625 14.0625 76.0833 14.1562 75.4219 14.1562C74.5729 14.1562 73.9089 13.9271 73.4297 13.4688C72.9557 13.0104 72.7188 12.362 72.7188 11.5234C72.7188 10.6328 73.0495 9.96094 73.7109 9.50781C74.3724 9.05469 75.3802 8.80729 76.7344 8.76562L78.2266 8.71875V8.25781C78.2266 7.70573 78.0964 7.29427 77.8359 7.02344C77.5807 6.7474 77.1823 6.60938 76.6406 6.60938C76.1979 6.60938 75.7734 6.67448 75.3672 6.80469C74.9609 6.9349 74.5703 7.08854 74.1953 7.26562L73.6016 5.95312C74.0703 5.70833 74.5833 5.52344 75.1406 5.39844C75.6979 5.26823 76.224 5.20312 76.7188 5.20312C77.8177 5.20312 78.6458 5.44271 79.2031 5.92188C79.7656 6.40104 80.0469 7.15365 80.0469 8.17969V14H78.7344ZM76 12.75C76.6667 12.75 77.2005 12.5651 77.6016 12.1953C78.0078 11.8203 78.2109 11.2969 78.2109 10.625V9.875L77.1016 9.92188C76.237 9.95312 75.6068 10.099 75.2109 10.3594C74.8203 10.6146 74.625 11.0078 74.625 11.5391C74.625 11.9245 74.7396 12.224 74.9688 12.4375C75.1979 12.6458 75.5417 12.75 76 12.75ZM85.5234 14.1562C84.4453 14.1562 83.6042 13.7656 83 12.9844C82.3958 12.2031 82.0938 11.1068 82.0938 9.69531C82.0938 8.27865 82.3984 7.17708 83.0078 6.39062C83.6224 5.59896 84.4714 5.20312 85.5547 5.20312C86.6901 5.20312 87.5547 5.6224 88.1484 6.46094H88.2422C88.1536 5.84115 88.1094 5.35156 88.1094 4.99219V1.84375H89.9531V14H88.5156L88.1953 12.8672H88.1094C87.5208 13.7266 86.6589 14.1562 85.5234 14.1562ZM86.0156 12.6719C86.7708 12.6719 87.3203 12.4609 87.6641 12.0391C88.0078 11.612 88.1849 10.9219 88.1953 9.96875V9.71094C88.1953 8.6224 88.0182 7.84896 87.6641 7.39062C87.3099 6.93229 86.7552 6.70312 86 6.70312C85.3542 6.70312 84.8568 6.96615 84.5078 7.49219C84.1589 8.01302 83.9844 8.75781 83.9844 9.72656C83.9844 10.6849 84.1536 11.4167 84.4922 11.9219C84.8307 12.4219 85.3385 12.6719 86.0156 12.6719ZM101.789 4.01562C100.716 4.01562 99.8724 4.39583 99.2578 5.15625C98.6432 5.91667 98.3359 6.96615 98.3359 8.30469C98.3359 9.70573 98.6302 10.7656 99.2188 11.4844C99.8125 12.2031 100.669 12.5625 101.789 12.5625C102.273 12.5625 102.742 12.5156 103.195 12.4219C103.648 12.3229 104.12 12.1979 104.609 12.0469V13.6484C103.714 13.987 102.698 14.1562 101.562 14.1562C99.8906 14.1562 98.6068 13.651 97.7109 12.6406C96.8151 11.625 96.3672 10.1745 96.3672 8.28906C96.3672 7.10156 96.5833 6.0625 97.0156 5.17188C97.4531 4.28125 98.0833 3.59896 98.9062 3.125C99.7292 2.65104 100.695 2.41406 101.805 2.41406C102.971 2.41406 104.049 2.65885 105.039 3.14844L104.367 4.70312C103.982 4.52083 103.573 4.36198 103.141 4.22656C102.714 4.08594 102.263 4.01562 101.789 4.01562ZM113.578 2.57812H115.516L111.516 14H109.547L105.562 2.57812H107.484L109.867 9.67969C109.992 10.0182 110.125 10.4557 110.266 10.9922C110.406 11.5234 110.497 11.9193 110.539 12.1797C110.607 11.7839 110.711 11.3255 110.852 10.8047C110.992 10.2839 111.107 9.89844 111.195 9.64844L113.578 2.57812Z" fill="white"/>
<path d="M4.39831 12.5668L4.39842 9.03832L4.39854 5.36838C4.39854 5.19942 4.39857 5.03043 4.39859 4.86142C4.39868 4.35456 4.39877 3.84751 4.39808 3.34048C4.3978 3.13302 4.29096 2.96425 4.09772 2.91413L4.07261 3.01093L4.09772 2.91413C3.96256 2.87908 3.83374 2.91014 3.74026 2.99866C3.64913 3.08494 3.60223 3.21533 3.60223 3.36206C3.602 6.03257 3.60223 8.70333 3.60246 11.3741L4.39831 12.5668ZM4.39831 12.5668C4.51598 12.4241 4.63363 12.2815 4.75128 12.1388C5.28593 11.4906 5.82073 10.8421 6.35763 10.1958C6.41604 10.1253 6.49924 10.0566 6.5913 10.0222L6.59142 10.0221C6.77279 9.95456 6.95322 10.052 7.04024 10.199M4.39831 12.5668L7.04024 10.199M1.53114 10.2178C1.43421 10.1014 1.29206 10.0708 1.16883 10.1329C1.04675 10.1946 0.971056 10.331 1.01052 10.4701C1.03521 10.5571 1.09336 10.6385 1.15129 10.7092L2.67355 11.6006C2.51567 11.4093 2.35779 11.2181 2.19991 11.0268C2.14668 10.9623 2.09349 10.8977 2.04031 10.8332C1.87097 10.6277 1.70166 10.4222 1.53114 10.2178ZM1.53114 10.2178L1.60794 10.1537C1.60795 10.1537 1.60797 10.1538 1.60798 10.1538C1.77869 10.3585 1.94825 10.5642 2.11761 10.7698C2.17076 10.8343 2.22389 10.8987 2.27703 10.9631M1.53114 10.2178L2.27703 10.9631M2.27703 10.9631C2.43491 11.1544 2.5928 11.3457 2.75068 11.537C3.03461 11.881 3.31853 12.225 3.60246 12.5688L3.60246 12.5663L3.60246 12.5634L3.60246 12.5604L3.60246 12.5575L3.60246 12.5546L3.60246 12.5517L3.60246 12.5487L3.60246 12.5458L3.60246 12.5429L3.60246 12.54L3.60246 12.537L3.60246 12.5341L3.60246 12.5312L3.60246 12.5283L3.60246 12.5254L3.60246 12.5224L3.60246 12.5195L3.60246 12.5166L3.60246 12.5137L3.60246 12.5108L3.60246 12.5079L3.60246 12.505L3.60246 12.502L3.60246 12.4991L3.60246 12.4962L3.60246 12.4933L3.60246 12.4904L3.60246 12.4875L3.60246 12.4846L3.60246 12.4817L3.60246 12.4788L3.60246 12.4758L3.60246 12.4729L3.60246 12.47L3.60246 12.4671L3.60246 12.4642L3.60246 12.4613L3.60246 12.4584L3.60246 12.4555L3.60246 12.4526L3.60246 12.4497L3.60246 12.4468L3.60246 12.4439L3.60246 12.441L3.60246 12.4381L3.60246 12.4352L3.60246 12.4323L3.60246 12.4294L3.60246 12.4265L3.60246 12.4236L3.60246 12.4207L3.60246 12.4178L3.60246 12.4149L3.60246 12.412L3.60246 12.4091L3.60246 12.4062L3.60246 12.4033L3.60246 12.4004L3.60246 12.3975L3.60246 12.3946L3.60246 12.3918L3.60246 12.3889L3.60246 12.386L3.60246 12.3831L3.60246 12.3802L3.60246 12.3773L3.60246 12.3744L3.60246 12.3715L3.60246 12.3686L3.60246 12.3658L3.60246 12.3629L3.60246 12.36L3.60246 12.3571L3.60246 12.3542L3.60246 12.3513L3.60246 12.3484L3.60246 12.3456L3.60246 12.3427L3.60246 12.3398L3.60246 12.3369L3.60246 12.334L3.60246 12.3312L3.60246 12.3283L3.60246 12.3254L3.60246 12.3225L3.60246 12.3196L3.60246 12.3168L3.60246 12.3139L3.60246 12.311L3.60246 12.3081L3.60246 12.3052L3.60246 12.3024L3.60246 12.2995L3.60246 12.2966L3.60246 12.2937L3.60246 12.2909L3.60246 12.288L3.60246 12.2851L3.60246 12.2823L3.60246 12.2794L3.60246 12.2765L3.60246 12.2736L3.60246 12.2708L3.60246 12.2679L3.60246 12.265L3.60246 12.2622L3.60246 12.2593L3.60246 12.2564L3.60246 12.2536L3.60246 12.2507L3.60246 12.2478L3.60246 12.245L3.60246 12.2421L3.60246 12.2392L3.60246 12.2364L3.60246 12.2335L3.60246 12.2306L3.60246 12.2278L3.60246 12.2249L3.60246 12.222L3.60246 12.2192L3.60246 12.2163L3.60246 12.2135L3.60246 12.2106L3.60246 12.2077L3.60246 12.2049L3.60246 12.202L3.60246 12.1992L3.60246 12.1963L3.60246 12.1934L3.60246 12.1906L3.60246 12.1877L3.60246 12.1849L3.60246 12.182L3.60246 12.1792L3.60246 12.1763L3.60246 12.1734L3.60246 12.1706L3.60246 12.1677L3.60246 12.1649L3.60246 12.162L3.60246 12.1592L3.60246 12.1563L3.60246 12.1535L3.60246 12.1506L3.60246 12.1478L3.60246 12.1449L3.60246 12.1421L3.60246 12.1392L3.60246 12.1364L3.60246 12.1335L3.60246 12.1307L3.60246 12.1278L3.60246 12.125L3.60246 12.1221L3.60246 12.1193L3.60246 12.1164L3.60246 12.1136L3.60246 12.1107L3.60246 12.1079L3.60246 12.105L3.60246 12.1022L3.60246 12.0994L3.60246 12.0965L3.60246 12.0937L3.60246 12.0908L3.60246 12.088L3.60246 12.0851L3.60246 12.0823L3.60246 12.0795L3.60246 12.0766L3.60246 12.0738L3.60246 12.0709L3.60246 12.0681L3.60246 12.0652L3.60246 12.0624L3.60246 12.0596L3.60246 12.0567L3.60246 12.0539L3.60246 12.0511L3.60246 12.0482L3.60246 12.0454L3.60246 12.0425L3.60246 12.0397L3.60246 12.0369L3.60246 12.034L3.60246 12.0312L3.60246 12.0284L3.60246 12.0255L3.60246 12.0227L3.60246 12.0199L3.60246 12.017L3.60246 12.0142L3.60246 12.0114L3.60246 12.0085L3.60246 12.0057L3.60246 12.0029L3.60246 12L3.60246 11.9972L3.60246 11.9944L3.60246 11.9915L3.60246 11.9887L3.60246 11.9859L3.60246 11.983L3.60246 11.9802L3.60246 11.9774L3.60246 11.9746L3.60246 11.9717L3.60246 11.9689L3.60246 11.9661L3.60246 11.9632L3.60246 11.9604L3.60246 11.9576L3.60246 11.9548L3.60246 11.9519L3.60246 11.9491L3.60246 11.9463L3.60246 11.9435L3.60246 11.9406L3.60246 11.9378L3.60246 11.935L3.60246 11.9322L3.60246 11.9293L3.60246 11.9265L3.60246 11.9237L3.60246 11.9209L3.60246 11.918L3.60246 11.9152L3.60246 11.9124L3.60246 11.9096L3.60246 11.9068L3.60246 11.9039L3.60246 11.9011L3.60246 11.8983L3.60246 11.8955L3.60246 11.8926L3.60246 11.8898L3.60246 11.887L3.60246 11.8842L3.60246 11.8814L3.60246 11.8785L3.60246 11.8757L3.60246 11.8729L3.60246 11.8701L3.60246 11.8673L3.60246 11.8645L3.60246 11.8616L3.60246 11.8588L3.60246 11.856L3.60246 11.8532L3.60246 11.8504L3.60246 11.8476L3.60246 11.8447L3.60246 11.8419L3.60246 11.8391L3.60246 11.8363L3.60246 11.8335L3.60246 11.8307L3.60246 11.8279L3.60246 11.825L3.60246 11.8222L3.60246 11.8194L3.60246 11.8166L3.60246 11.8138L3.60246 11.811L3.60246 11.8082L3.60246 11.8053L3.60246 11.8025L3.60246 11.7997L3.60246 11.7969L3.60246 11.7941L3.60246 11.7913L3.60246 11.7885L3.60246 11.7857L3.60246 11.7829L3.60246 11.78L3.60246 11.7772L3.60246 11.7744L3.60246 11.7716L3.60246 11.7688L3.60246 11.766L3.60246 11.7632L3.60246 11.7604L3.60246 11.7576L3.60246 11.7548L3.60246 11.752L3.60246 11.7491L3.60246 11.7463L3.60246 11.7435L3.60246 11.7407L3.60246 11.7379L3.60246 11.7351L3.60246 11.7323L3.60246 11.7295L3.60246 11.7267L3.60246 11.7239L3.60246 11.7211L3.60246 11.7183L3.60246 11.7155L3.60246 11.7127L3.60246 11.7099L3.60246 11.707L3.60246 11.7042L3.60246 11.7014L3.60246 11.6986L3.60246 11.6958L3.60246 11.693L3.60246 11.6902L3.60246 11.6874L3.60246 11.6846L3.60246 11.6818L3.60246 11.679L3.60246 11.6762L3.60246 11.6734L3.60246 11.6706L3.60246 11.6678L3.60246 11.665L3.60246 11.6622L3.60246 11.6594L3.60246 11.6566L3.60246 11.6538L3.60246 11.651L3.60246 11.6482L3.60246 11.6454L3.60246 11.6426L3.60246 11.6398L3.60246 11.637L3.60246 11.6342L3.60246 11.6314L3.60246 11.6286L3.60246 11.6258L3.60246 11.623L3.60246 11.6202L3.60246 11.6174L3.60246 11.6146L3.60246 11.6118L3.60246 11.609L3.60246 11.6062L3.60246 11.6034L3.60246 11.6006L3.60246 11.5978L3.60246 11.595L3.60246 11.5922L3.60246 11.5894L3.60246 11.5866L3.60246 11.5838L3.60246 11.581L3.60246 11.5782L3.60246 11.5754L3.60246 11.5726L3.60246 11.5698L3.60246 11.567L3.60246 11.5642L3.60246 11.5614L3.60246 11.5586L3.60246 11.5558L3.60246 11.553L3.60246 11.5502L3.60246 11.5474L3.60246 11.5446L3.60246 11.5418L3.60246 11.539L3.60246 11.5362L3.60246 11.5334L3.60246 11.5306L3.60246 11.5278L3.60246 11.525L3.60246 11.5222L3.60246 11.5194L3.60246 11.5166L3.60246 11.5138L3.60246 11.511L3.60246 11.5082L3.60246 11.5054L3.60246 11.5026L3.60246 11.4999L3.60246 11.4971L3.60246 11.4943L3.60246 11.4915L3.60246 11.4887L3.60246 11.4859L3.60246 11.4831L3.60246 11.4803L3.60246 11.4775L3.60246 11.4747L3.60246 11.4719L3.60246 11.4691L3.60246 11.4663L3.60246 11.4635L3.60246 11.4607L3.60246 11.4579L3.60246 11.4551L3.60246 11.4523L3.60246 11.4495L3.60246 11.4467L3.60246 11.4439L3.60246 11.4411L3.60246 11.4384L3.60246 11.4356L3.60246 11.4328L3.60246 11.43L3.60246 11.4272L3.60246 11.4244L3.60246 11.4216L3.60246 11.4188L3.60246 11.416L3.60246 11.4132L3.60246 11.4104L3.60246 11.4076L3.60246 11.4048L3.60246 11.402L3.60246 11.3992L3.60246 11.3964L3.60246 11.3936L3.60246 11.3908L3.60246 11.388L3.60246 11.3853L3.60246 11.3825L3.60246 11.3797L3.60246 11.3769L3.60246 11.3741L2.27703 10.9631ZM6.95425 10.2501C7.02532 10.3698 7.01425 10.5072 6.9164 10.6267C6.71603 10.8714 6.51456 11.1152 6.31314 11.3589C6.22272 11.4683 6.13231 11.5777 6.04201 11.6871L7.04029 10.1991C7.0403 10.1991 7.04031 10.1991 7.04033 10.1992L6.95425 10.2501ZM6.95425 10.2501L7.04024 10.199M6.95425 10.2501L7.04024 10.199" fill="white" stroke="white" stroke-width="0.2"/>
<line x1="1.3" y1="19.7" x2="115.7" y2="19.7" stroke="white" stroke-width="0.6" stroke-linecap="round"/>
</svg>
