<svg width="192" height="44" viewBox="0 0 192 44" fill="none" xmlns="http://www.w3.org/2000/svg">
<circle cx="22" cy="22" r="22" fill="#F6F6F6"/>
<path d="M29.0938 24.2227C29.0391 25.4102 28.7188 26.4609 28.1328 27.375C27.5469 28.2812 26.7227 28.9844 25.6602 29.4844C24.6055 29.9844 23.3984 30.2344 22.0391 30.2344C19.7969 30.2344 18.0312 29.5039 16.7422 28.043C15.4531 26.582 14.8086 24.5195 14.8086 21.8555V21.0117C14.8086 19.3398 15.0977 17.8789 15.6758 16.6289C16.2617 15.3711 17.1016 14.4023 18.1953 13.7227C19.2891 13.0352 20.5547 12.6914 21.9922 12.6914C24.0625 12.6914 25.7266 13.2383 26.9844 14.332C28.2422 15.418 28.957 16.918 29.1289 18.832H25.0273C24.9961 17.793 24.7344 17.0469 24.2422 16.5938C23.75 16.1406 23 15.9141 21.9922 15.9141C20.9688 15.9141 20.2188 16.2969 19.7422 17.0625C19.2656 17.8281 19.0156 19.0508 18.9922 20.7305V21.9375C18.9922 23.7578 19.2188 25.0586 19.6719 25.8398C20.1328 26.6211 20.9219 27.0117 22.0391 27.0117C22.9844 27.0117 23.707 26.7891 24.207 26.3438C24.707 25.8984 24.9727 25.1914 25.0039 24.2227H29.0938Z" fill="black"/>
<path d="M64.6064 23.7598C64.5062 24.8216 64.1143 25.651 63.4307 26.248C62.7471 26.8405 61.8379 27.1367 60.7031 27.1367C59.9102 27.1367 59.2106 26.9499 58.6045 26.5762C58.0029 26.1979 57.5381 25.6624 57.21 24.9697C56.8818 24.277 56.7109 23.4727 56.6973 22.5566V21.627C56.6973 20.6882 56.8636 19.861 57.1963 19.1455C57.529 18.43 58.0052 17.8786 58.625 17.4912C59.2493 17.1038 59.9694 16.9102 60.7852 16.9102C61.8835 16.9102 62.7676 17.2087 63.4375 17.8057C64.1074 18.4027 64.4971 19.2458 64.6064 20.335H62.8838C62.8018 19.6195 62.5921 19.1045 62.2549 18.79C61.9222 18.471 61.4323 18.3115 60.7852 18.3115C60.0332 18.3115 59.4544 18.5872 59.0488 19.1387C58.6478 19.6855 58.4427 20.4899 58.4336 21.5518V22.4336C58.4336 23.5091 58.625 24.3294 59.0078 24.8945C59.3952 25.4596 59.9603 25.7422 60.7031 25.7422C61.3822 25.7422 61.8926 25.5895 62.2344 25.2842C62.5762 24.9788 62.7926 24.4707 62.8838 23.7598H64.6064ZM76.3005 27H74.5779V22.5771H70.1277V27H68.3982V17.0469H70.1277V21.1895H74.5779V17.0469H76.3005V27ZM82.4165 27H80.6939V17.0469H82.4165V27ZM90.4397 23.165H88.512V27H86.7825V17.0469H90.2825C91.4309 17.0469 92.3173 17.3044 92.9417 17.8193C93.566 18.3343 93.8782 19.0794 93.8782 20.0547C93.8782 20.7201 93.7164 21.2783 93.3929 21.7295C93.0738 22.1761 92.6272 22.5202 92.053 22.7617L94.2884 26.9111V27H92.4358L90.4397 23.165ZM88.512 21.7773H90.2893C90.8727 21.7773 91.3284 21.6315 91.6565 21.3398C91.9846 21.0436 92.1487 20.6403 92.1487 20.1299C92.1487 19.5967 91.996 19.1842 91.6907 18.8926C91.3899 18.6009 90.9387 18.4505 90.3372 18.4414H88.512V21.7773ZM103.33 24.6826H99.4746L98.668 27H96.8702L100.63 17.0469H102.182L105.948 27H104.144L103.33 24.6826ZM99.96 23.2881H102.845L101.402 19.1592L99.96 23.2881ZM116.802 25.708C116.442 26.1774 115.943 26.5329 115.304 26.7744C114.666 27.016 113.942 27.1367 113.131 27.1367C112.297 27.1367 111.558 26.9476 110.916 26.5693C110.273 26.1911 109.776 25.651 109.426 24.9492C109.079 24.2428 108.899 23.4202 108.886 22.4814V21.7021C108.886 20.1982 109.246 19.0247 109.966 18.1816C110.686 17.334 111.691 16.9102 112.98 16.9102C114.088 16.9102 114.967 17.1836 115.619 17.7305C116.271 18.2773 116.663 19.0658 116.795 20.0957H115.099C114.908 18.8971 114.213 18.2979 113.014 18.2979C112.24 18.2979 111.65 18.5781 111.244 19.1387C110.843 19.6947 110.636 20.5127 110.622 21.5928V22.3584C110.622 23.4339 110.847 24.2702 111.299 24.8672C111.754 25.4596 112.386 25.7559 113.192 25.7559C114.076 25.7559 114.705 25.5553 115.079 25.1543V23.2061H113.028V21.8936H116.802V25.708ZM126.668 27V17.0469H130.079C131.205 17.0469 132.062 17.2725 132.65 17.7236C133.238 18.1748 133.532 18.847 133.532 19.7402C133.532 20.196 133.409 20.6061 133.162 20.9707C132.916 21.3353 132.556 21.6178 132.082 21.8184C132.62 21.9642 133.035 22.2399 133.326 22.6455C133.623 23.0465 133.771 23.5296 133.771 24.0947C133.771 25.029 133.47 25.7467 132.868 26.248C132.271 26.7493 131.415 27 130.298 27H126.668ZM128.398 22.5088V25.6191H130.319C130.861 25.6191 131.285 25.4847 131.59 25.2158C131.895 24.9469 132.048 24.5732 132.048 24.0947C132.048 23.0602 131.52 22.5316 130.462 22.5088H128.398ZM128.398 21.2373H130.093C130.631 21.2373 131.05 21.1165 131.351 20.875C131.656 20.6289 131.809 20.2826 131.809 19.8359C131.809 19.3438 131.668 18.9883 131.385 18.7695C131.107 18.5508 130.672 18.4414 130.079 18.4414H128.398V21.2373ZM143.312 24.6826H139.456L138.649 27H136.852L140.611 17.0469H142.163L145.93 27H144.125L143.312 24.6826ZM139.941 23.2881H142.826L141.384 19.1592L139.941 23.2881ZM149.305 27V17.0469H152.244C153.124 17.0469 153.903 17.2428 154.582 17.6348C155.265 18.0267 155.794 18.5827 156.168 19.3027C156.542 20.0228 156.728 20.8477 156.728 21.7773V22.2764C156.728 23.2197 156.539 24.0492 156.161 24.7646C155.787 25.4801 155.252 26.0316 154.555 26.4189C153.862 26.8063 153.067 27 152.169 27H149.305ZM151.034 18.4414V25.6191H152.162C153.069 25.6191 153.764 25.3366 154.247 24.7715C154.735 24.2018 154.983 23.3861 154.992 22.3242V21.7705C154.992 20.6904 154.757 19.8656 154.288 19.2959C153.819 18.7262 153.137 18.4414 152.244 18.4414H151.034ZM168.593 27H166.871V22.5771H162.421V27H160.691V17.0469H162.421V21.1895H166.871V17.0469H168.593V27ZM178.578 24.6826H174.723L173.916 27H172.119L175.878 17.0469H177.43L181.197 27H179.392L178.578 24.6826ZM175.208 23.2881H178.093L176.651 19.1592L175.208 23.2881ZM186.301 25.6191H190.819V27H184.571V17.0469H186.301V25.6191Z" fill="white"/>
</svg>
